<svg 
  xmlns="http://www.w3.org/2000/svg" 
  xmlns:xlink="http://www.w3.org/1999/xlink" 
  width="140" 
  zoomAndPan="magnify" 
  viewBox="0 0 375 374.999991" 
  height="120" preserveAspectRatio="xMidYMid meet" 
  version="1.0"><defs><clipPath 
  id="5e25ec4675">
  <path 
    d="M 22.195312 67 L 353.375 67 L 353.375 330 L 22.195312 330 Z M 22.195312 67 " 
    clip-rule="nonzero"/></clipPath><clipPath 
    id="f62606857a"><path 
    d="M 104.015625 130.003906 L 270.5625 130.003906 L 270.5625 369.292969 L 104.015625 369.292969 Z M 104.015625 130.003906 " 
    clip-rule="nonzero"/></clipPath></defs>
      <g 
        clip-path="url(#5e25ec4675)">
          <path 
            fill="#550f72" 
            d="M 227.953125 182.121094 L 318.230469 92.746094 L 327.683594 102.191406 L 241.300781 188.527344 L 241.300781 274.710938 L 259.488281 256.066406 L 259.488281 195.25 L 343.507812 112.03125 L 353.394531 102.152344 L 318.25 67.039062 L 308.359375 76.917969 L 209.785156 174.546875 L 209.785156 281.035156 C 201.710938 289.441406 195.433594 295.976562 187.796875 303.929688 C 180.15625 295.976562 173.898438 289.460938 165.808594 281.035156 L 165.808594 174.546875 L 67.230469 76.917969 L 57.34375 67.039062 L 22.195312 102.152344 L 32.085938 112.03125 L 116.105469 195.25 L 116.105469 256.066406 L 134.292969 274.710938 L 134.292969 188.527344 L 47.910156 102.191406 L 57.363281 92.746094 L 147.640625 182.121094 L 147.640625 288.402344 L 187.796875 329.558594 C 201.410156 315.960938 215.117188 302.738281 227.953125 288.402344 Z M 227.953125 182.121094 " 
            fill-opacity="1" 
            fill-rule="evenodd"/></g>
              <path 
                fill="#550f72" 
                d="M 187.796875 66.757812 C 202.222656 66.757812 213.925781 78.449219 213.925781 92.859375 C 213.925781 107.269531 202.222656 118.960938 187.796875 118.960938 C 173.371094 118.960938 161.667969 107.269531 161.667969 92.859375 C 161.667969 78.449219 173.371094 66.757812 187.796875 66.757812 Z M 187.796875 66.757812 " 
                fill-opacity="1" 
                fill-rule="evenodd"/>
                  <path 
                    fill="#430554" 
                    d="M 196.890625 169.503906 L 244.703125 121.738281 L 244.703125 61.296875 L 256.765625 49.25 L 256.765625 109.6875 L 274.953125 91.519531 L 274.953125 5.390625 L 226.515625 53.78125 L 226.515625 114.222656 L 187.796875 152.902344 L 149.058594 114.222656 L 149.058594 53.78125 L 100.636719 5.390625 L 100.636719 91.519531 L 118.808594 109.6875 L 118.808594 49.25 L 130.886719 61.296875 L 130.871094 121.738281 L 178.703125 169.503906 L 178.703125 276.65625 L 187.796875 286.117188 L 196.890625 276.65625 Z M 196.890625 169.503906 " 
                    fill-opacity="1" 
                    fill-rule="evenodd"/>
                      <g 
                        clip-path="url(#f62606857a)">
                          <path 
                            fill="#7d176f" 
                            d="M 181.898438 300.824219 L 181.898438 348.425781 L 193.429688 348.425781 L 193.429688 295.972656 L 104.015625 208.175781 L 104.015625 130.023438 L 187.128906 212.652344 L 270.5625 130.023438 L 270.5625 210.039062 L 213.554688 268.414062 L 197.164062 252.046875 L 248.570312 199.21875 L 247.449219 183.972656 L 187.289062 243.890625 L 127.878906 183.597656 L 127.878906 200.339844 L 215.046875 285.949219 L 215.046875 369.269531 L 158.785156 369.269531 L 158.785156 279.605469 Z M 181.898438 300.824219 " 
                            fill-opacity="1" 
                            fill-rule="nonzero"/></g>
</svg>